<?xml version="1.0" standalone="no"?><!DOCTYPE svg PUBLIC "-//W3C//DTD SVG 1.1//EN" "http://www.w3.org/Graphics/SVG/1.1/DTD/svg11.dtd"><svg t="1692602456647" class="icon" viewBox="0 0 1024 1024" version="1.1" xmlns="http://www.w3.org/2000/svg" p-id="1607" xmlns:xlink="http://www.w3.org/1999/xlink" width="96" height="96"><path d="M0 0m0 0l1024 0q0 0 0 0l0 1024q0 0 0 0l-1024 0q0 0 0 0l0-1024q0 0 0 0Z" fill="#E8EFF8" p-id="1608"></path><path d="M395.636364 651.636364a23.272727 23.272727 0 0 1 23.272727-23.272728h395.636364a23.272727 23.272727 0 0 1 23.272727 23.272728v116.363636a23.272727 23.272727 0 0 1-23.272727 23.272727H418.909091a23.272727 23.272727 0 0 1-23.272727-23.272727v-116.363636z" fill="#247ADE" p-id="1609"></path><path d="M395.636364 442.181818a23.272727 23.272727 0 0 1 23.272727-23.272727h395.636364a23.272727 23.272727 0 0 1 23.272727 23.272727v116.363637a23.272727 23.272727 0 0 1-23.272727 23.272727H418.909091a23.272727 23.272727 0 0 1-23.272727-23.272727v-116.363637z" fill="#69CB91" p-id="1610"></path><path d="M395.636364 232.727273a23.272727 23.272727 0 0 1 23.272727-23.272728h395.636364a23.272727 23.272727 0 0 1 23.272727 23.272728v116.363636a23.272727 23.272727 0 0 1-23.272727 23.272727H418.909091a23.272727 23.272727 0 0 1-23.272727-23.272727v-116.363636zM302.545455 232.727273a23.272727 23.272727 0 0 0-23.272728-23.272728H162.909091a23.272727 23.272727 0 0 0-23.272727 23.272728v535.272727a23.272727 23.272727 0 0 0 23.272727 23.272727h116.363636a23.272727 23.272727 0 0 0 23.272728-23.272727V232.727273z" fill="#A0BFF7" p-id="1611"></path></svg>